<?xml version="1.0" standalone="no"?>
<!DOCTYPE svg PUBLIC "-//W3C//DTD SVG 20010904//EN"
 "http://www.w3.org/TR/2001/REC-SVG-20010904/DTD/svg10.dtd">
<svg version="1.0" xmlns="http://www.w3.org/2000/svg"
 width="257.000000pt" height="142.000000pt" viewBox="0 0 257.000000 142.000000"
 preserveAspectRatio="xMidYMid meet">

<g transform="translate(0.000000,142.000000) scale(0.100000,-0.100000)"
fill="#000000" stroke="none">
<path d="M1300 1291 c-14 -5 -203 -79 -420 -165 -429 -171 -450 -183 -450
-251 0 -52 16 -83 55 -106 l35 -21 0 -118 c0 -109 -2 -119 -20 -125 -10 -3
-31 -20 -45 -37 -25 -30 -25 -33 -23 -167 l3 -136 104 -3 c67 -2 108 1 117 9
11 9 14 41 14 133 0 133 -14 174 -65 198 -24 11 -25 14 -25 115 0 76 3 103 13
103 6 -1 59 -20 117 -43 l105 -43 5 -98 c5 -94 6 -99 36 -126 76 -68 251 -104
504 -104 253 0 428 36 504 104 30 27 31 32 36 126 l5 98 174 69 c190 77 211
93 211 169 0 73 -16 82 -465 259 -409 162 -467 180 -525 160z m504 -223 c518
-206 512 -198 251 -302 -76 -31 -143 -56 -147 -56 -4 0 -8 42 -8 94 0 112 -10
130 -98 169 -99 45 -181 58 -397 64 -158 4 -220 2 -292 -11 -131 -23 -219 -54
-259 -91 l-34 -32 0 -97 c0 -53 -4 -96 -8 -96 -21 0 -290 114 -306 130 -16 15
-17 24 -9 42 8 19 87 54 414 185 268 107 417 161 444 162 30 1 144 -40 449
-161z m-154 -117 c47 -11 101 -26 122 -35 67 -29 68 -32 68 -192 0 -79 -3
-144 -7 -144 -5 0 -31 9 -59 19 -104 40 -219 55 -414 55 -195 0 -310 -15 -414
-55 -28 -10 -54 -19 -58 -19 -5 0 -8 65 -8 144 0 160 1 164 68 192 50 21 152
44 237 54 111 14 367 3 465 -19z m5 -386 c84 -18 180 -64 180 -85 0 -23 -99
-67 -195 -87 -120 -25 -440 -25 -560 0 -95 20 -195 64 -195 87 0 32 120 77
261 100 89 14 426 4 509 -15z m-1073 -132 c15 -13 18 -32 18 -110 l0 -93 -55
0 -55 0 0 90 c0 77 3 93 20 110 24 24 47 25 72 3z"/>
</g>
</svg>
