<?xml version="1.0" encoding="UTF-8"?>
<svg version="1.1" xmlns="http://www.w3.org/2000/svg" width="257" height="142">
<path d="M0 0 C1.05002197 0.39928711 2.10004395 0.79857422 3.18188477 1.20996094 C12.00656535 4.5904854 20.76150448 8.13744719 29.49755859 11.73999023 C36.01344892 14.42176996 42.54905788 17.03369997 49.12109375 19.57421875 C49.87053757 19.86497284 50.61998138 20.15572693 51.39213562 20.45529175 C55.84943576 22.18485867 55.84943576 22.18485867 60.31369019 23.8963623 C62.37627445 24.68226029 64.43444939 25.47885955 66.4921875 26.27734375 C67.6766748 26.73101318 68.86116211 27.18468262 70.08154297 27.65209961 C73.70422797 29.33615406 77.36730344 31.15590768 79.0625 34.9375 C79.124375 35.659375 79.18625 36.38125 79.25 37.125 C79.4046875 38.795625 79.4046875 38.795625 79.5625 40.5 C79.17691055 44.9728376 78.22787453 46.77489116 75.25 50.125 C68.55556517 53.81552177 61.47057116 56.55643594 54.375 59.375 C52.66570312 60.06335938 52.66570312 60.06335938 50.921875 60.765625 C49.83648437 61.19875 48.75109375 61.631875 47.6328125 62.078125 C46.64684082 62.47161133 45.66086914 62.86509766 44.64501953 63.27050781 C42.25 64.125 42.25 64.125 40.25 64.125 C40.29189453 64.69943848 40.33378906 65.27387695 40.37695312 65.86572266 C40.54424064 68.49308951 40.64755424 71.11933923 40.75 73.75 C40.81703125 74.65363281 40.8840625 75.55726562 40.953125 76.48828125 C41.14364728 83.01366941 41.14364728 83.01366941 38.74560547 85.99584961 C34.1386725 89.66462898 28.95219116 91.70847442 23.375 93.4375 C22.63636719 93.68822266 21.89773437 93.93894531 21.13671875 94.19726562 C9.7444734 97.87950784 -2.27706692 97.40248897 -14.125 97.4375 C-14.97049408 97.44011841 -15.81598816 97.44273682 -16.68710327 97.44543457 C-34.60522037 97.45138426 -54.95532007 97.22994593 -68.75 84.125 C-69.8982685 81.828463 -69.86561175 80.54186833 -69.84765625 77.9921875 C-69.84443359 77.18652344 -69.84121094 76.38085938 -69.83789062 75.55078125 C-69.82532227 74.28814453 -69.82532227 74.28814453 -69.8125 73 C-69.80798828 72.15050781 -69.80347656 71.30101563 -69.79882812 70.42578125 C-69.78702874 68.32549091 -69.76909306 66.2252367 -69.75 64.125 C-70.39501465 63.94582031 -71.0400293 63.76664062 -71.70458984 63.58203125 C-78.64226827 61.63399136 -85.13328013 58.97172832 -91.75 56.125 C-91.75 62.395 -91.75 68.665 -91.75 75.125 C-90.43 75.785 -89.11 76.445 -87.75 77.125 C-82.71229451 82.39701737 -81.60870502 86.09391818 -81.65234375 93.20703125 C-81.65556641 94.13837891 -81.65878906 95.06972656 -81.66210938 96.02929688 C-81.67048828 96.98900391 -81.67886719 97.94871094 -81.6875 98.9375 C-81.69201172 99.91654297 -81.69652344 100.89558594 -81.70117188 101.90429688 C-81.71291316 104.31126111 -81.72933581 106.71809857 -81.75 109.125 C-82.41 109.125 -83.07 109.125 -83.75 109.125 C-83.75 109.785 -83.75 110.445 -83.75 111.125 C-87.38897951 112.94448976 -91.68159288 112.30970453 -95.6875 112.3125 C-96.60724609 112.32474609 -97.52699219 112.33699219 -98.47460938 112.34960938 C-99.80008789 112.35250977 -99.80008789 112.35250977 -101.15234375 112.35546875 C-101.96179443 112.35957764 -102.77124512 112.36368652 -103.60522461 112.36791992 C-105.75 112.125 -105.75 112.125 -108.75 110.125 C-109.18237305 107.51123047 -109.18237305 107.51123047 -109.26171875 104.2421875 C-109.31489258 102.49228516 -109.31489258 102.49228516 -109.36914062 100.70703125 C-109.39169922 99.48371094 -109.41425781 98.26039062 -109.4375 97 C-109.48874023 95.15341797 -109.48874023 95.15341797 -109.54101562 93.26953125 C-109.62371564 90.2214449 -109.69279427 87.17365429 -109.75 84.125 C-109.09 84.125 -108.43 84.125 -107.75 84.125 C-107.481875 83.361875 -107.21375 82.59875 -106.9375 81.8125 C-105.79204753 79.22016021 -104.98584819 77.82424463 -102.75 76.125 C-101.76 76.125 -100.77 76.125 -99.75 76.125 C-99.75 68.205 -99.75 60.285 -99.75 52.125 C-101.4 51.465 -103.05 50.805 -104.75 50.125 C-106.94122148 47.7273591 -108.46401703 45.10457662 -109.75 42.125 C-109.625 39.375 -109.625 39.375 -108.75 37.125 C-108.688125 36.444375 -108.62625 35.76375 -108.5625 35.0625 C-107.23171002 31.88907774 -104.64886647 30.78149512 -101.75 29.125 C-101.09 29.125 -100.43 29.125 -99.75 29.125 C-99.42 28.465 -99.09 27.805 -98.75 27.125 C-96.38399996 26.12562085 -94.04319803 25.22948595 -91.625 24.375 C-90.16352355 23.84392874 -88.70259827 23.31133858 -87.2421875 22.77734375 C-86.49549805 22.50519043 -85.74880859 22.23303711 -84.97949219 21.95263672 C-80.3643129 20.23938028 -75.81229017 18.36786979 -71.25 16.51953125 C-68.9283842 15.59451245 -66.59614831 14.69568982 -64.25390625 13.82421875 C-58.36722216 11.63107085 -52.54463721 9.27261021 -46.71362305 6.93652344 C-44.68915311 6.12566212 -42.66395123 5.31664971 -40.63867188 4.5078125 C-39.33068492 3.98448557 -38.02274076 3.46105167 -36.71484375 2.9375 C-35.5455835 2.46957031 -34.37632324 2.00164063 -33.17163086 1.51953125 C-26.63739922 -1.13810267 -26.63739922 -1.13810267 -20.25 -4.125 C-13.48352195 -6.15494341 -6.2515519 -2.4097674 0 0 Z M-30.41796875 8.96484375 C-31.41468094 9.36522354 -32.41139313 9.76560333 -33.43830872 10.17811584 C-36.61150009 11.45683782 -39.77446805 12.75887846 -42.9375 14.0625 C-45.00911131 14.90330663 -47.08137336 15.74251182 -49.15429688 16.58007812 C-52.25454589 17.83354158 -55.35379032 19.08915836 -58.44967651 20.35336304 C-66.63892349 23.69636274 -74.86827553 26.9285298 -83.13114929 30.08518982 C-92.63558056 33.45961346 -92.63558056 33.45961346 -100.75 39.125 C-100.72829284 41.16753256 -100.72829284 41.16753256 -99.75 43.125 C-92.97424288 48.20281325 -83.40573049 50.74385639 -75.53125 53.76953125 C-74.5112793 54.16168823 -74.5112793 54.16168823 -73.47070312 54.56176758 C-71.73496246 55.22869519 -71.73496246 55.22869519 -69.75 55.125 C-69.81960937 53.49691406 -69.81960937 53.49691406 -69.890625 51.8359375 C-69.92816487 50.39065269 -69.96456264 48.94533789 -70 47.5 C-70.03351563 46.78714844 -70.06703125 46.07429688 -70.1015625 45.33984375 C-70.19712233 40.13183277 -69.23991931 37.22080808 -65.75 33.125 C-52.37251025 22.91040512 -31.25717809 22.89066585 -15.375 22.875 C-14.66679108 22.87399292 -13.95858215 22.87298584 -13.22891235 22.87194824 C24.0532298 22.90774533 24.0532298 22.90774533 37.25 34.125 C40.14319987 38.7706131 40.63977433 42.64751012 40.4375 48 C40.42396484 48.68835937 40.41042969 49.37671875 40.39648438 50.0859375 C40.3614837 51.76597001 40.30768954 53.4455935 40.25 55.125 C46.7396137 53.45077533 52.92783148 51.15031144 59.125 48.625 C59.86226318 48.32843506 60.59952637 48.03187012 61.35913086 47.72631836 C65.0233275 46.21022922 68.207342 44.73754404 71.25 42.125 C71.20420251 39.70469594 71.20420251 39.70469594 70.25 37.125 C67.71137778 35.4311384 67.71137778 35.4311384 64.44140625 34.2578125 C63.22710937 33.76780762 62.0128125 33.27780273 60.76171875 32.77294922 C59.44549625 32.26482325 58.12908637 31.75718241 56.8125 31.25 C55.48369964 30.72191107 54.15557449 30.19212001 52.828125 29.66064453 C48.97768318 28.1253138 45.11469886 26.6240722 41.25 25.125 C39.33164267 24.37077928 37.41362217 23.61570067 35.49609375 22.859375 C32.55418323 21.7034898 29.60869728 20.55838082 26.65625 19.4296875 C24.62069538 18.65001406 22.59089497 17.85462261 20.57421875 17.02734375 C18.25823776 16.12819819 15.9601354 15.4584745 13.5625 14.8125 C8.94437487 13.46068625 4.88349042 11.53163603 0.6171875 9.33203125 C-10.44652961 3.69063094 -19.01371091 4.1950735 -30.41796875 8.96484375 Z M-60.35864258 38.2902832 C-62.42099048 41.0098032 -62.08879186 43.16733295 -62.04296875 46.54296875 C-62.03330078 47.79658203 -62.02363281 49.05019531 -62.01367188 50.34179688 C-61.98853516 51.65212891 -61.96339844 52.96246094 -61.9375 54.3125 C-61.92244967 55.64777163 -61.90876187 56.98305937 -61.89648438 58.31835938 C-61.86107694 61.58764576 -61.8116889 64.85612093 -61.75 68.125 C-61.05237549 67.92729004 -60.35475098 67.72958008 -59.63598633 67.52587891 C-53.93292087 65.93556834 -48.2732313 64.50059317 -42.4375 63.5 C-41.71747803 63.37520264 -40.99745605 63.25040527 -40.25561523 63.12182617 C-26.76641592 60.88278846 -13.22075211 60.60488402 0.375 61.875 C1.27863281 61.95935303 2.18226563 62.04370605 3.11328125 62.13061523 C11.43119665 62.99364295 19.20473212 64.89127779 27.25 67.125 C28.91477258 67.46766769 30.58116609 67.80269226 32.25 68.125 C32.39505993 63.54199875 32.48399681 58.95958637 32.5625 54.375 C32.60439453 53.07304688 32.64628906 51.77109375 32.68945312 50.4296875 C32.70556641 49.17929688 32.72167969 47.92890625 32.73828125 46.640625 C32.76446533 45.48852539 32.79064941 44.33642578 32.81762695 43.14941406 C32.51249829 39.94291099 32.51249829 39.94291099 29.89477539 37.79248047 C9.80810343 25.12821669 -40.34356341 23.79157735 -60.35864258 38.2902832 Z M-48.0625 72 C-49.09225952 72.22381348 -49.09225952 72.22381348 -50.14282227 72.45214844 C-54.79645993 73.57995357 -57.96472801 75.31979068 -61.75 78.125 C-61.07093666 81.25324152 -61.07093666 81.25324152 -58.58984375 82.40625 C-45.03737525 88.09719236 -31.57760203 89.63714805 -17.04101562 89.51611328 C-14.75069688 89.5000049 -12.46214161 89.51608699 -10.171875 89.53515625 C4.2679231 89.55573278 19.92050269 88.34466487 32.25 80.125 C32.25 79.465 32.25 78.805 32.25 78.125 C12.45467052 62.68827518 -25.17466469 66.83463229 -48.0625 72 Z M-99.47949219 84.37646484 C-101.69797779 87.42965352 -101.09573138 91.124174 -101 94.75 C-100.99484375 95.53890625 -100.9896875 96.3278125 -100.984375 97.140625 C-101.28296619 100.94138209 -101.28296619 100.94138209 -99.75 104.125 C-96.29178598 104.37503964 -96.29178598 104.37503964 -92.75 104.125 C-90.20799705 101.58299705 -90.46283087 99.88275617 -90.42773438 96.40820312 C-90.43095703 95.67537109 -90.43417969 94.94253906 -90.4375 94.1875 C-90.42138672 93.45853516 -90.40527344 92.72957031 -90.38867188 91.97851562 C-90.38423007 87.83712905 -90.38423007 87.83712905 -92.01953125 84.12109375 C-94.73881005 82.5558204 -96.93152223 82.53274745 -99.47949219 84.37646484 Z " fill="#242424" transform="translate(150.75,14.875)"/>
<path d="" fill="#FFFFFF" transform="translate(0,0)"/>
<path d="" fill="#FFFFFF" transform="translate(0,0)"/>
<path d="" fill="#FFFFFF" transform="translate(0,0)"/>
<path d="" fill="#FFFFFF" transform="translate(0,0)"/>
<path d="" fill="#FFFFFF" transform="translate(0,0)"/>
<path d="" fill="#FFFFFF" transform="translate(0,0)"/>
<path d="" fill="#FFFFFF" transform="translate(0,0)"/>
<path d="" fill="#FFFFFF" transform="translate(0,0)"/>
<path d="" fill="#FFFFFF" transform="translate(0,0)"/>
<path d="" fill="#FFFFFF" transform="translate(0,0)"/>
<path d="" fill="#FFFFFF" transform="translate(0,0)"/>
<path d="" fill="#FFFFFF" transform="translate(0,0)"/>
<path d="" fill="#FFFFFF" transform="translate(0,0)"/>
<path d="" fill="#FFFFFF" transform="translate(0,0)"/>
<path d="" fill="#FFFFFF" transform="translate(0,0)"/>
<path d="" fill="#FFFFFF" transform="translate(0,0)"/>
<path d="" fill="#FFFFFF" transform="translate(0,0)"/>
</svg>
